<svg xmlns="http://www.w3.org/2000/svg" viewBox="0 0 32 32" width="32" height="32">
  <defs>
    <linearGradient id="star" x1="0" y1="0" x2="1" y2="1">
      <stop offset="0" stop-color="#f4f6ff"/>
      <stop offset="1" stop-color="#9fc0ff"/>
    </linearGradient>
    <filter id="glow" x="-60%" y="-60%" width="220%" height="220%">
      <feGaussianBlur stdDeviation="1.15"/>
    </filter>
  </defs>
  <rect width="32" height="32" rx="7" fill="#05060d"/>
  <path d="M14 3 15.7 12.3 25 14 15.7 15.7 14 25 12.3 15.7 3 14 12.3 12.3Z"
        fill="#6ea8ff" opacity="0.55" filter="url(#glow)"/>
  <path d="M14 3 15.7 12.3 25 14 15.7 15.7 14 25 12.3 15.7 3 14 12.3 12.3Z"
        fill="url(#star)"/>
  <path d="M23.7 18.8 24.37 22.33 27.9 23 24.37 23.67 23.7 27.2 23.03 23.67 19.5 23 23.03 22.33Z"
        fill="#b388ff"/>
</svg>
